<svg width="100" height="100" viewBox="0 0 100 100" fill="none" xmlns="http://www.w3.org/2000/svg">
<rect width="100" height="100" rx="20" fill="#263B4F"/>
<path d="M31.3333 68.6667H35.1333L61.2 42.6L57.4 38.8L31.3333 64.8667V68.6667ZM26 74V62.6667L61.2 27.5333C61.7333 27.0444 62.3222 26.6667 62.9667 26.4C63.6111 26.1333 64.2889 26 65 26C65.7111 26 66.4 26.1333 67.0667 26.4C67.7333 26.6667 68.3111 27.0667 68.8 27.6L72.4667 31.3333C73 31.8222 73.3889 32.4 73.6333 33.0667C73.8778 33.7333 74 34.4 74 35.0667C74 35.7778 73.8778 36.4556 73.6333 37.1C73.3889 37.7444 73 38.3333 72.4667 38.8667L37.3333 74H26ZM59.2667 40.7333L57.4 38.8L61.2 42.6L59.2667 40.7333Z" fill="white"/>
</svg>
