<svg width="100" height="100" viewBox="0 0 100 100" fill="none" xmlns="http://www.w3.org/2000/svg">
<rect width="100" height="100" rx="20" fill="#263B4F"/>
<path d="M42.85 62.5L50 55.2778L57.15 62.5L61 58.6111L53.85 51.3889L61 44.1667L57.15 40.2778L50 47.5L42.85 40.2778L39 44.1667L46.15 51.3889L39 58.6111L42.85 62.5ZM36.25 75C34.7375 75 33.4427 74.456 32.3656 73.3681C31.2885 72.2801 30.75 70.9722 30.75 69.4444V33.3333H28V27.7778H41.75V25H58.25V27.7778H72V33.3333H69.25V69.4444C69.25 70.9722 68.7115 72.2801 67.6344 73.3681C66.5573 74.456 65.2625 75 63.75 75H36.25ZM63.75 33.3333H36.25V69.4444H63.75V33.3333Z" fill="white"/>
</svg>
