<svg width="56" height="56" viewBox="0 0 56 56" fill="none" xmlns="http://www.w3.org/2000/svg">
<path d="M51.4333 55.75L32.0083 36.325C30.4667 37.5583 28.6937 38.5347 26.6896 39.2542C24.6854 39.9736 22.5528 40.3333 20.2917 40.3333C14.6903 40.3333 9.94965 38.3934 6.06979 34.5135C2.18993 30.6337 0.25 25.8931 0.25 20.2917C0.25 14.6903 2.18993 9.94965 6.06979 6.06979C9.94965 2.18993 14.6903 0.25 20.2917 0.25C25.8931 0.25 30.6337 2.18993 34.5135 6.06979C38.3934 9.94965 40.3333 14.6903 40.3333 20.2917C40.3333 22.5528 39.9736 24.6854 39.2542 26.6896C38.5347 28.6937 37.5583 30.4667 36.325 32.0083L55.75 51.4333L51.4333 55.75ZM20.2917 34.1667C24.1458 34.1667 27.4219 32.8177 30.1198 30.1198C32.8177 27.4219 34.1667 24.1458 34.1667 20.2917C34.1667 16.4375 32.8177 13.1615 30.1198 10.4635C27.4219 7.76563 24.1458 6.41667 20.2917 6.41667C16.4375 6.41667 13.1615 7.76563 10.4635 10.4635C7.76563 13.1615 6.41667 16.4375 6.41667 20.2917C6.41667 24.1458 7.76563 27.4219 10.4635 30.1198C13.1615 32.8177 16.4375 34.1667 20.2917 34.1667Z" fill="#192E41"/>
</svg>
